<svg xmlns="http://www.w3.org/2000/svg" version="1.1" viewBox="-5.0 -10.0 110.0 135.0">
 <path fill="#ffffff" d="m71.859 17.289h-48.176c-0.67969 0-1.2305 0.55078-1.2305 1.2305v67.418c0 0.67969 0.55078 1.2305 1.2305 1.2305h48.176c0.67969 0 1.2305-0.55078 1.2305-1.2305v-67.418c0-0.67969-0.55078-1.2305-1.2305-1.2305zm-1.2305 67.418h-45.715v-64.957h45.719zm-23.871-19.953c0.23047 0.33203 0.60938 0.53125 1.0117 0.53125 0.40234 0 0.78125-0.19922 1.0117-0.53125l8.1758-11.828c0.28906-0.42188 0.28906-0.97656 0-1.3984l-8.1758-11.828c-0.23047-0.33203-0.60938-0.53125-1.0117-0.53125-0.40234 0-0.78125 0.19922-1.0117 0.53125l-8.1758 11.828c-0.28906 0.42188-0.28906 0.97656 0 1.3984zm1.0117-22.191 6.6797 9.6641-6.6797 9.6641-6.6797-9.6641zm-16.82-7.1875c0.23047 0.33203 0.60938 0.53125 1.0117 0.53125 0.40234 0 0.78125-0.19922 1.0117-0.53125l4.0859-5.9141c0.28906-0.42188 0.28906-0.97656 0-1.3984l-4.0859-5.9141c-0.23047-0.33203-0.60938-0.53125-1.0117-0.53125-0.40234 0-0.78125 0.19922-1.0117 0.53125l-4.0859 5.9141c-0.28906 0.42188-0.28906 0.97656 0 1.3984zm1.0117-10.363 2.5938 3.75-2.5938 3.75-2.5938-3.75zm30.605 57.297c0.23047 0.33203 0.60938 0.53125 1.0117 0.53125s0.78125-0.19922 1.0117-0.53125l4.0859-5.9141c0.28906-0.42188 0.28906-0.97656 0-1.3984l-4.0859-5.9141c-0.23047-0.33203-0.60938-0.53125-1.0117-0.53125s-0.78125 0.19922-1.0117 0.53125l-4.0859 5.9141c-0.28906 0.42188-0.28906 0.97656 0 1.3984zm1.0117-10.363 2.5938 3.75-2.5938 3.75-2.5938-3.75zm13.969-57.883v67.418c0 0.67969-0.55078 1.2305-1.2305 1.2305-0.67969 0-1.2305-0.55078-1.2305-1.2305v-66.188h-46.945c-0.67969 0-1.2305-0.55078-1.2305-1.2305s0.55078-1.2305 1.2305-1.2305h48.176c0.67969 0 1.2305 0.55078 1.2305 1.2305z"/>
</svg>