<svg xmlns="http://www.w3.org/2000/svg" viewBox="0 10.279999732971191 156.39999389648438 45.51000213623047" data-asc="0.9052734375" width="156.39999389648438" height="45.51000213623047"><defs/><g><g fill="#ffffff"><g transform="translate(0, 0)"><path d="M0 37.52L4.35 36.84Q4.71 39.45 6.38 40.84Q8.06 42.24 11.06 42.24Q14.09 42.24 15.55 41.00Q17.02 39.77 17.02 38.11Q17.02 36.62 15.72 35.77Q14.82 35.18 11.23 34.28Q6.40 33.06 4.53 32.17Q2.66 31.27 1.70 29.70Q0.73 28.13 0.73 26.22Q0.73 24.49 1.53 23.01Q2.32 21.53 3.69 20.56Q4.71 19.80 6.48 19.27Q8.25 18.75 10.28 18.75Q13.33 18.75 15.64 19.63Q17.94 20.51 19.04 22.01Q20.14 23.51 20.56 26.03L16.26 26.61Q15.97 24.61 14.56 23.49Q13.16 22.36 10.60 22.36Q7.57 22.36 6.27 23.36Q4.98 24.37 4.98 25.71Q4.98 26.56 5.52 27.25Q6.05 27.95 7.20 28.42Q7.86 28.66 11.08 29.54Q15.75 30.79 17.59 31.58Q19.43 32.37 20.48 33.89Q21.53 35.40 21.53 37.65Q21.53 39.84 20.25 41.78Q18.97 43.73 16.55 44.79Q14.14 45.85 11.08 45.85Q6.03 45.85 3.38 43.75Q0.73 41.65 0 37.52ZM43.68 42.07Q41.24 44.14 38.98 45.00Q36.72 45.85 34.13 45.85Q29.86 45.85 27.56 43.76Q25.27 41.67 25.27 38.43Q25.27 36.52 26.14 34.95Q27.00 33.37 28.41 32.42Q29.81 31.47 31.57 30.98Q32.86 30.64 35.47 30.32Q40.80 29.69 43.31 28.81Q43.33 27.91 43.33 27.66Q43.33 24.98 42.09 23.88Q40.41 22.39 37.08 22.39Q33.98 22.39 32.51 23.47Q31.03 24.56 30.32 27.32L26.03 26.73Q26.61 23.97 27.95 22.28Q29.30 20.58 31.84 19.67Q34.38 18.75 37.72 18.75Q41.04 18.75 43.12 19.53Q45.19 20.31 46.17 21.50Q47.14 22.68 47.53 24.49Q47.75 25.61 47.75 28.54L47.75 34.40Q47.75 40.53 48.03 42.15Q48.32 43.77 49.15 45.26L44.56 45.26Q43.87 43.90 43.68 42.07M43.31 32.25Q40.92 33.23 36.13 33.91Q33.42 34.30 32.30 34.79Q31.18 35.28 30.57 36.22Q29.96 37.16 29.96 38.31Q29.96 40.06 31.29 41.24Q32.62 42.41 35.18 42.41Q37.72 42.41 39.70 41.30Q41.67 40.19 42.60 38.26Q43.31 36.77 43.31 33.86L43.31 32.25ZM64.16 41.33L64.79 45.21Q62.94 45.61 61.47 45.61Q59.08 45.61 57.76 44.85Q56.45 44.09 55.91 42.86Q55.37 41.63 55.37 37.67L55.37 22.75L52.15 22.75L52.15 19.34L55.37 19.34L55.37 12.92L59.74 10.28L59.74 19.34L64.16 19.34L64.16 22.75L59.74 22.75L59.74 37.92Q59.74 39.79 59.97 40.33Q60.21 40.87 60.73 41.19Q61.25 41.50 62.23 41.50Q62.96 41.50 64.16 41.33ZM68.26 55.25L67.77 51.12Q69.21 51.51 70.29 51.51Q71.75 51.51 72.63 51.03Q73.51 50.54 74.07 49.66Q74.49 49.00 75.42 46.39Q75.54 46.02 75.81 45.31L65.97 19.34L70.70 19.34L76.10 34.35Q77.15 37.21 77.98 40.36Q78.74 37.33 79.79 34.45L85.33 19.34L89.72 19.34L79.86 45.70Q78.27 49.98 77.39 51.59Q76.22 53.76 74.71 54.77Q73.19 55.79 71.09 55.79Q69.82 55.79 68.26 55.25ZM110.38 42.07Q107.93 44.14 105.68 45.00Q103.42 45.85 100.83 45.85Q96.56 45.85 94.26 43.76Q91.97 41.67 91.97 38.43Q91.97 36.52 92.83 34.95Q93.70 33.37 95.10 32.42Q96.51 31.47 98.27 30.98Q99.56 30.64 102.17 30.32Q107.50 29.69 110.01 28.81Q110.03 27.91 110.03 27.66Q110.03 24.98 108.79 23.88Q107.10 22.39 103.78 22.39Q100.68 22.39 99.21 23.47Q97.73 24.56 97.02 27.32L92.72 26.73Q93.31 23.97 94.65 22.28Q96.00 20.58 98.54 19.67Q101.07 18.75 104.42 18.75Q107.74 18.75 109.81 19.53Q111.89 20.31 112.87 21.50Q113.84 22.68 114.23 24.49Q114.45 25.61 114.45 28.54L114.45 34.40Q114.45 40.53 114.73 42.15Q115.01 43.77 115.84 45.26L111.25 45.26Q110.57 43.90 110.38 42.07M110.01 32.25Q107.62 33.23 102.83 33.91Q100.12 34.30 99.00 34.79Q97.88 35.28 97.27 36.22Q96.66 37.16 96.66 38.31Q96.66 40.06 97.99 41.24Q99.32 42.41 101.88 42.41Q104.42 42.41 106.40 41.30Q108.37 40.19 109.30 38.26Q110.01 36.77 110.01 33.86L110.01 32.25ZM121.26 45.26L121.26 19.34L125.20 19.34L125.20 22.97Q126.42 21.07 128.44 19.91Q130.47 18.75 133.06 18.75Q135.94 18.75 137.78 19.95Q139.62 21.14 140.38 23.29Q143.46 18.75 148.39 18.75Q152.25 18.75 154.32 20.89Q156.40 23.02 156.40 27.47L156.40 45.26L152.03 45.26L152.03 28.93Q152.03 26.29 151.60 25.13Q151.17 23.97 150.05 23.27Q148.93 22.56 147.41 22.56Q144.68 22.56 142.87 24.38Q141.06 26.20 141.06 30.20L141.06 45.26L136.67 45.26L136.67 28.42Q136.67 25.49 135.60 24.02Q134.52 22.56 132.08 22.56Q130.22 22.56 128.65 23.54Q127.08 24.51 126.37 26.39Q125.66 28.27 125.66 31.81L125.66 45.26L121.26 45.26Z"/></g></g></g></svg>