<svg xmlns="http://www.w3.org/2000/svg" xmlns:xlink="http://www.w3.org/1999/xlink" version="1.1" x="0px" y="0px" viewBox="0 0 512 640" style="enable-background:new 0 0 512 512;" xml:space="preserve"><g><path fill="#ffffff" d="M471.6,250.8c-3.9-3.9-97.7-95-215.6-95s-211.6,91.1-215.6,95c-1.4,1.4-2.2,3.2-2.2,5.2s0.8,3.8,2.2,5.2   c3.9,3.9,97.7,95,215.6,95s211.6-91.1,215.6-95c1.4-1.4,2.2-3.2,2.2-5.2S473,252.2,471.6,250.8z M256,341.6   c-96,0-177.9-66.3-199.7-85.6c2.4-2.1,5.5-4.8,9.2-7.9c0.8-0.7,1.6-1.3,2.5-2c0.3-0.2,0.6-0.5,0.9-0.7c0.6-0.5,1.2-1,1.8-1.4   c0.3-0.2,0.6-0.5,0.9-0.7c0.6-0.5,1.3-1,1.9-1.5c3.6-2.8,7.6-5.8,11.9-8.9c0.8-0.6,1.6-1.1,2.4-1.7c1.2-0.9,2.5-1.7,3.7-2.6   c0.4-0.3,0.9-0.6,1.3-0.9c1.7-1.2,3.5-2.4,5.3-3.6c1.4-0.9,2.7-1.8,4.1-2.7c0.9-0.6,1.9-1.2,2.8-1.8c2.9-1.8,5.8-3.6,8.9-5.5   c1-0.6,2-1.2,3.1-1.8c1-0.6,2.1-1.2,3.1-1.8c0.5-0.3,1.1-0.6,1.6-0.9c1.1-0.6,2.1-1.2,3.2-1.8c35.7-19.7,81.4-37.4,131-37.4   s95.3,17.6,131,37.4c1.1,0.6,2.2,1.2,3.2,1.8c0.5,0.3,1.1,0.6,1.6,0.9c1,0.6,2.1,1.2,3.1,1.8c1,0.6,2.1,1.2,3.1,1.8   c3,1.8,6,3.6,8.9,5.5c1,0.6,1.9,1.2,2.8,1.8c1.4,0.9,2.8,1.8,4.1,2.7c1.8,1.2,3.6,2.4,5.3,3.6c0.4,0.3,0.9,0.6,1.3,0.9   c1.3,0.9,2.5,1.7,3.7,2.6c0.8,0.6,1.6,1.1,2.4,1.7c4.3,3.1,8.3,6.1,11.9,8.9c0.6,0.5,1.3,1,1.9,1.5c0.3,0.2,0.6,0.5,0.9,0.7   c0.6,0.5,1.2,1,1.8,1.4c0.3,0.2,0.6,0.5,0.9,0.7c0.9,0.7,1.7,1.4,2.5,2c3.8,3.1,6.9,5.8,9.2,7.9C433.9,275.3,352,341.6,256,341.6z"/><ellipse cx="256" cy="256" rx="54.5" ry="54.5" fill="#ffffff"/></g><text x="0" y="527" fill="#ffffff" font-size="5px" font-weight="bold" font-family="'Helvetica Neue', Helvetica, Arial-Unicode, Arial, Sans-serif">Created by Adeel rehman</text><text x="0" y="532" fill="#ffffff" font-size="5px" font-weight="bold" font-family="'Helvetica Neue', Helvetica, Arial-Unicode, Arial, Sans-serif">from the Noun Project</text></svg>